<svg width="137" height="24" viewBox="0 0 137 24" fill="none" xmlns="http://www.w3.org/2000/svg">
<g clip-path="url(#clip0_1457_9254)">
<path d="M40.8524 16.7432V21.6081H38.4574V7.17567H40.3247L40.6088 8.43243C41.2583 7.49999 42.2325 7.05405 43.3285 7.05405C45.6017 7.05405 46.9412 8.59459 46.9412 11.7568C46.9412 15.1216 45.3175 16.9865 42.3949 16.9865C41.9078 16.9865 41.3395 16.9054 40.8524 16.7432ZM44.5057 12C44.5057 10.054 43.8562 9.12162 42.5572 9.12162C41.9484 9.12162 41.2989 9.44594 40.8524 9.97297V14.9189C41.1771 15.0811 41.583 15.1622 41.9889 15.1622C43.6938 15.1622 44.5057 14.1486 44.5057 12Z" fill="white"/>
<path d="M49.3362 3.24323C50.3104 3.24323 50.9193 3.85133 50.9193 4.70269C50.9193 5.55404 50.351 6.1216 49.3362 6.1216C48.4025 6.1216 47.7531 5.55404 47.7531 4.70269C47.7531 3.85133 48.4025 3.24323 49.3362 3.24323ZM48.159 7.2162H50.5539V16.8243H48.159V7.2162Z" fill="white"/>
<path d="M59.0378 16.4189C58.6319 16.7027 57.5765 17.027 56.5211 17.027C53.4766 17.027 51.7717 15.2838 51.7717 12.1622C51.7717 9.24324 53.2737 7.05405 56.5617 7.05405C57.6171 7.05405 58.5913 7.29729 59.0378 7.58107V9.6081C58.3071 9.24324 57.6171 9.08107 56.8864 9.08107C55.1003 9.08107 54.2073 10.2568 54.2073 12.0405C54.2073 13.9865 55.1815 15 56.927 15C57.6983 15 58.3477 14.8378 59.0784 14.4324V16.4189H59.0378Z" fill="white"/>
<path d="M63.6653 12.8919H62.6099V16.7838H60.215V2.39188H62.6099V10.9459H63.7871L66.2227 7.2162H68.8612L65.695 11.7973L68.9018 16.7838H66.0603L63.6653 12.8919Z" fill="white"/>
<path d="M68.7395 21.1621V19.2567C69.0642 19.3784 69.6325 19.4189 70.0385 19.4189C71.4186 19.4189 72.1087 19.0135 72.7176 17.1892L72.8394 16.8243H71.8651L68.9019 7.21619H71.4592L73.5294 14.2297L75.6808 7.21619H78.0352L74.7878 17.4729C73.8948 20.3108 72.5146 21.4054 70.2008 21.4054C69.7137 21.4054 69.1048 21.3243 68.7395 21.1621Z" fill="white"/>
<path d="M78.0758 12.0811C78.0758 8.99999 79.5777 7.05405 82.5816 7.05405C85.423 7.05405 86.925 8.83783 86.925 11.9595C86.925 15.0405 85.4231 17.027 82.4192 17.027C79.6589 16.9865 78.0758 15.2838 78.0758 12.0811ZM84.4488 12.0405C84.4488 9.85135 83.8399 8.95945 82.5004 8.95945C81.2014 8.95945 80.5925 9.93243 80.5925 12.0405C80.5925 14.2297 81.2014 15.1216 82.5004 15.1216C83.7993 15.1216 84.4488 14.1892 84.4488 12.0405Z" fill="white"/>
<path d="M93.7851 15.8513C93.2168 16.5405 92.3643 16.9865 91.1871 16.9865C89.1981 16.9865 88.1427 15.8108 88.1427 13.7027V7.21619H90.5783V13.2973C90.5783 14.4729 91.0248 14.9189 92.0396 14.9189C92.6079 14.9189 93.2168 14.6756 93.6227 14.2702V7.21619H96.0177V14.3108C96.0177 14.8783 96.2206 15.0811 96.6266 15.0811C96.8701 15.0811 97.0731 15.0405 97.2354 14.9189V16.6216C96.8701 16.8648 96.3018 16.9865 95.6523 16.9865C94.6375 16.9865 94.0692 16.6216 93.7851 15.8513Z" fill="white"/>
<path d="M98.3721 7.21621H100.361L100.605 8.79729C100.929 7.66216 101.619 7.05405 102.837 7.05405C103.203 7.05405 103.568 7.09459 103.852 7.21621V9.52702H103.203C102.188 9.52702 101.538 9.68918 100.808 10.3378V16.8243H98.4127V7.21621H98.3721Z" fill="white"/>
<path d="M112.701 7.21619H114.69L114.934 8.79727C115.259 7.66214 115.949 7.01349 117.166 7.01349C117.532 7.01349 117.897 7.05403 118.181 7.17565V9.48646H117.532C116.517 9.48646 115.868 9.64863 115.137 10.2973V16.7838H112.742V7.21619H112.701Z" fill="white"/>
<path d="M109.251 16.9865C107.018 16.9865 106.044 15.8919 106.044 13.7027V8.99998H104.745V8.35133L105.07 7.2162H106.166L106.572 4.74323H108.683L108.48 7.2162H111.281L110.834 8.99998H108.439V13.3378C108.439 14.473 108.845 14.9594 109.941 14.9594C110.509 14.9594 111.078 14.7973 111.524 14.5946V16.5C111.078 16.7432 110.144 16.9865 109.251 16.9865Z" fill="white"/>
<path d="M124.189 15.973C123.702 16.6216 122.89 17.027 121.794 17.027C120.008 17.027 118.79 15.9324 118.79 14.1486C118.79 12.2838 119.927 11.1892 122.606 11.1892H124.027V10.8243C124.027 9.60811 123.499 9.2027 121.997 9.2027C121.104 9.2027 120.089 9.4054 119.358 9.68919V7.7027C120.049 7.37837 121.307 7.13513 122.525 7.13513C125.163 7.13513 126.422 8.39189 126.422 10.6216V14.4324C126.422 14.9595 126.625 15.2027 127.03 15.2027C127.233 15.2027 127.436 15.1622 127.599 15.0405V16.6622C127.233 16.9054 126.665 17.027 126.016 17.027C125.082 16.9865 124.473 16.6216 124.189 15.973ZM123.986 14.6351V12.6081H123.012C121.632 12.6081 121.104 13.1351 121.104 13.9459C121.104 14.7568 121.632 15.2027 122.525 15.2027C123.134 15.2432 123.621 15.0405 123.986 14.6351Z" fill="white"/>
<path d="M129.953 3.24323C130.927 3.24323 131.536 3.85133 131.536 4.70269C131.536 5.55404 130.968 6.1216 129.953 6.1216C129.019 6.1216 128.37 5.55404 128.37 4.70269C128.37 3.85133 129.019 3.24323 129.953 3.24323ZM128.776 7.2162H131.171V16.8243H128.776V7.2162Z" fill="white"/>
<path d="M132.754 2.39188H135.19V14.1892C135.19 14.8784 135.393 15.1216 135.961 15.1216C136.164 15.1216 136.407 15.0811 136.61 14.9594V16.6216C136.286 16.8243 135.595 16.9459 135.027 16.9459C133.606 16.9459 132.795 16.2973 132.795 14.6757V2.39188H132.754Z" fill="white"/>
<path d="M32.9377 10.1351L25.3727 1.21622C24.8411 0.567568 24.0233 0 23.0827 0H4.5586C2.92292 0 2.06418 1.09459 1.90061 2.67568L0.0195765 21.3243C-0.184884 22.7432 1.24634 24 2.71846 24H9.58834L11.5512 8.43243C11.5921 7.94595 11.6738 7.66216 11.9601 7.41892C12.2463 7.17568 12.5735 7.05405 12.9824 7.05405C13.2686 7.05405 13.4731 7.09459 13.6775 7.21622L22.7965 10.8243C23.3281 11.027 23.6961 11.5135 23.6961 12.0811C23.6961 12.6486 23.3281 13.1351 22.7965 13.3378L15.395 16.5811C14.3727 17.1892 14.0047 17.6351 13.6775 19.0135L13.1051 24H21.856C23.0827 24 23.5326 23.3919 24.1459 22.7838L32.9377 13.8649C33.8783 12.7703 33.8783 11.2297 32.9377 10.1351Z" fill="white"/>
</g>
<defs>
<clipPath id="clip0_1457_9254">
<rect width="136.976" height="24" fill="white"/>
</clipPath>
</defs>
</svg>
